HIERARCHY
ROOT Hips
{
	OFFSET 0.000000 0.000000 0.000000
	CHANNELS 6 Xposition Yposition Zposition Zrotation Yrotation Xrotation 
	JOINT LHipJoint
	{
		OFFSET 0.000000 0.000000 0.000000
		CHANNELS 3 Zrotation Yrotation Xrotation
		JOINT LeftUpLeg
		{
			OFFSET 1.363060 -1.794630 0.839290
			CHANNELS 3 Zrotation Yrotation Xrotation
			JOINT LeftLeg
			{
				OFFSET 2.448110 -6.726130 0.000000
				CHANNELS 3 Zrotation Yrotation Xrotation
				JOINT LeftFoot
				{
					OFFSET 2.562200 -7.039590 0.000000
					CHANNELS 3 Zrotation Yrotation Xrotation
					JOINT LeftToeBase
					{
						OFFSET 0.157640 -0.433110 2.322550
						CHANNELS 3 Zrotation Yrotation Xrotation
						End Site
						{
							OFFSET 0.000000 0.000000 0.000000
						}
					}
				}
			}
		}
	}
	JOINT RHipJoint
	{
		OFFSET 0.000000 0.000000 0.000000
		CHANNELS 3 Zrotation Yrotation Xrotation
		JOINT RightUpLeg
		{
			OFFSET -1.305520 -1.794630 0.839290
			CHANNELS 3 Zrotation Yrotation Xrotation
			JOINT RightLeg
			{
				OFFSET -2.542530 -6.985550 0.000000
				CHANNELS 3 Zrotation Yrotation Xrotation
				JOINT RightFoot
				{
					OFFSET -2.568260 -7.056230 0.000000
					CHANNELS 3 Zrotation Yrotation Xrotation
					JOINT RightToeBase
					{
						OFFSET -0.164730 -0.452590 2.363150
						CHANNELS 3 Zrotation Yrotation Xrotation
						End Site
						{
							OFFSET 0.000000 0.000000 0.000000
						}
					}
				}
			}
		}
	}
	JOINT LowerBack
	{
		OFFSET 0.000000 0.000000 0.000000
		CHANNELS 3 Zrotation Yrotation Xrotation
		JOINT Spine
		{
			OFFSET 0.028270 2.035590 -0.193380
			CHANNELS 3 Zrotation Yrotation Xrotation
			JOINT Spine1
			{
				OFFSET 0.056720 2.048850 -0.042750
				CHANNELS 3 Zrotation Yrotation Xrotation
				JOINT Neck
				{
					OFFSET 0.000000 0.000000 0.000000
					CHANNELS 3 Zrotation Yrotation Xrotation
					JOINT Neck1
					{
						OFFSET -0.054170 1.746240 0.172020
						CHANNELS 3 Zrotation Yrotation Xrotation
						JOINT Head
						{
							OFFSET 0.104070 1.761360 -0.123970
							CHANNELS 3 Zrotation Yrotation Xrotation
							End Site
							{
								OFFSET 0.000000 0.000000 0.000000
							}
						}
					}
				}
				JOINT LeftShoulder
				{
					OFFSET 0.000000 0.000000 0.000000
					CHANNELS 3 Zrotation Yrotation Xrotation
					JOINT LeftArm
					{
						OFFSET 3.362410 1.200890 -0.311210
						CHANNELS 3 Zrotation Yrotation Xrotation
						JOINT LeftForeArm
						{
							OFFSET 4.983000 -0.000000 -0.000000
							CHANNELS 3 Zrotation Yrotation Xrotation
							JOINT LeftHand
							{
								OFFSET 3.483560 -0.000000 -0.000000
								CHANNELS 3 Zrotation Yrotation Xrotation
								JOINT LeftFingerBase
								{
									OFFSET 0.000000 0.000000 0.000000
									CHANNELS 3 Zrotation Yrotation Xrotation
									JOINT LeftHandIndex1
									{
										OFFSET 0.715260 -0.000000 -0.000000
										CHANNELS 3 Zrotation Yrotation Xrotation
										End Site
										{
											OFFSET 0.000000 0.000000 0.000000
										}
									}
								}
								JOINT LThumb
								{
									OFFSET 0.000000 0.000000 0.000000
									CHANNELS 3 Zrotation Yrotation Xrotation
									End Site
									{
										OFFSET 0.000000 0.000000 0.000000
									}
								}
							}
						}
					}
				}
				JOINT RightShoulder
				{
					OFFSET 0.000000 0.000000 0.000000
					CHANNELS 3 Zrotation Yrotation Xrotation
					JOINT RightArm
					{
						OFFSET -3.136600 1.374050 -0.404650
						CHANNELS 3 Zrotation Yrotation Xrotation
						JOINT RightForeArm
						{
							OFFSET -5.241900 -0.000000 -0.000000
							CHANNELS 3 Zrotation Yrotation Xrotation
							JOINT RightHand
							{
								OFFSET -3.444170 -0.000000 -0.000000
								CHANNELS 3 Zrotation Yrotation Xrotation
								JOINT RightFingerBase
								{
									OFFSET 0.000000 0.000000 0.000000
									CHANNELS 3 Zrotation Yrotation Xrotation
									JOINT RightHandIndex1
									{
										OFFSET -0.622530 -0.000000 -0.000000
										CHANNELS 3 Zrotation Yrotation Xrotation
										End Site
										{
											OFFSET 0.000000 0.000000 0.000000
										}
									}
								}
								JOINT RThumb
								{
									OFFSET 0.000000 0.000000 0.000000
									CHANNELS 3 Zrotation Yrotation Xrotation
									End Site
									{
										OFFSET 0.000000 0.000000 0.000000
									}
								}
							}
						}
					}
				}
			}
		}
	}
}
MOTION
Frames: 9
Frame Time: 0.008333
-12.565546 16.053738 -1.569324 -38.547294 83.665174 -6.194694 -8.461505 -1.967337 -0.520628 -10.496107 0.765013 -70.498621 -1.810991 3.257654 42.972655 1.903419 7.565725 -6.543058 0.705799 -0.000000 -16.220700 11.209656 0.486634 -5.539793 8.111143 -11.187674 -40.899003 -0.275508 -5.127911 65.308978 0.615647 12.189489 9.712400 3.515900 -0.000000 -90.199800 -0.226734 -0.084818 9.361915 -0.800697 0.184868 -1.517044 -5.623750 0.205240 -1.968153 8.851581 -5.438775 -6.232135 -2.137750 -0.149646 -0.073743 0.000000 0.000000 0.000000 1.005789 8.864639 2.518071 -72.001307 17.830394 10.905512 -0.162364 -85.884795 0.004466 -0.907422 3.969032 -0.029725 0.008132 0.174329 0.000000 0.000000 0.000000 0.000000 0.000000 0.000000 0.000000 5.966434 0.996037 0.178683 69.743890 3.922847 10.398679 179.901160 88.215885 179.970864 -4.712972 2.521234 -0.121961 0.075386 -0.415830 0.000000 0.000000 0.000000 0.000000 0.000000 0.000000 0.000000 
-12.419120 16.030810 -1.586254 -37.235946 83.704649 -5.181921 -8.481688 -1.959771 -0.676220 -10.715749 0.840711 -70.254487 -1.735466 3.385958 44.545159 1.968552 7.766327 -7.556373 0.539800 -0.000000 -16.077099 11.254605 0.546532 -5.493716 7.553296 -11.105534 -40.729760 -0.449001 -5.135226 66.200470 0.521420 12.130654 11.125900 3.826900 -0.000000 -89.697301 -0.412395 -0.095841 9.441610 -0.845307 0.173709 -1.509293 -5.656136 0.194267 -2.008820 8.821766 -5.370053 -6.183291 -2.163937 -0.152094 -0.059733 0.000000 0.000000 0.000000 1.042841 8.551697 2.527670 -71.710774 17.025921 10.855570 -0.182851 -85.448742 0.003600 -0.729283 4.032132 -0.023992 0.002245 0.175432 0.000000 0.000000 0.000000 0.000000 0.000000 0.000000 0.000000 6.052575 1.034900 0.210037 70.075458 3.602015 10.220369 179.919410 88.705600 179.970993 -4.693503 2.534186 -0.121872 0.071857 -0.413970 0.000000 0.000000 0.000000 0.000000 0.000000 0.000000 0.000000 
-12.274586 16.010194 -1.602859 -35.975617 83.756943 -4.200756 -8.501595 -1.955121 -0.825775 -10.924301 0.885126 -69.929197 -1.674353 3.489353 45.963372 2.048979 8.009343 -8.733933 0.342900 -0.000000 -16.198100 11.290465 0.607311 -5.443011 7.046801 -10.957641 -40.610548 -0.623101 -5.139371 67.102989 0.408199 11.961853 12.686633 4.134300 0.000000 -88.963300 -0.572171 -0.104357 9.519127 -0.883545 0.164644 -1.500631 -5.684493 0.185290 -2.045088 8.760720 -5.291747 -6.121505 -2.191719 -0.154816 -0.042317 0.000000 0.000000 0.000000 1.053036 8.235717 2.533850 -71.381874 16.141489 10.826615 -0.204433 -85.003057 0.002737 -0.559896 4.083317 -0.018357 -0.003795 0.176920 0.000000 0.000000 0.000000 0.000000 0.000000 0.000000 0.000000 6.119408 1.073743 0.238809 70.416990 3.281184 10.037109 179.938856 89.247140 179.970916 -4.703697 2.553300 -0.122786 0.068757 -0.411850 0.000000 0.000000 0.000000 0.000000 0.000000 0.000000 0.000000 
-12.132029 15.991907 -1.619267 -34.775396 83.815608 -3.262316 -8.521774 -1.954231 -0.969309 -11.109052 0.896588 -69.522680 -1.623279 3.569330 47.228871 2.142921 8.297468 -10.003874 0.121300 0.000000 -16.540100 11.317796 0.669289 -5.388727 6.595226 -10.742762 -40.532083 -0.793412 -5.139303 68.006475 0.277296 11.681784 14.362856 4.419600 -0.000000 -87.950900 -0.706751 -0.111179 9.596167 -0.915234 0.157084 -1.488373 -5.707594 0.177962 -2.068649 8.673176 -5.213753 -6.053968 -2.220434 -0.157648 -0.023660 0.000000 0.000000 0.000000 1.048313 7.950059 2.536225 -71.029877 15.150826 10.827087 -0.227939 -84.531527 0.001877 -0.399820 4.125088 -0.012720 -0.010047 0.178791 0.000000 0.000000 0.000000 0.000000 0.000000 0.000000 0.000000 6.172002 1.101940 0.263121 70.757561 2.982244 9.867584 179.959404 89.847927 179.970817 -4.734801 2.580855 -0.124599 0.066043 -0.409391 0.000000 0.000000 0.000000 0.000000 0.000000 0.000000 0.000000 
-11.991150 15.975782 -1.635781 -33.732436 83.867979 -2.455690 -8.543326 -1.959249 -1.101912 -11.250129 0.879556 -69.059810 -1.576953 3.628678 48.355720 2.247623 8.628507 -11.295269 -0.117100 -0.000000 -17.033600 11.336562 0.730850 -5.325549 6.217277 -10.449181 -40.508251 -0.957698 -5.133635 68.909920 0.127690 11.277244 16.162717 4.666500 -0.000000 -86.607900 -0.804250 -0.116457 9.661425 -0.938142 0.150713 -1.476978 -5.726357 0.171624 -2.086514 8.560143 -5.126277 -5.974058 -2.250316 -0.160735 -0.001448 0.000000 0.000000 0.000000 1.016002 7.664647 2.534256 -70.663214 14.117242 10.809523 -0.251824 -84.069641 0.001014 -0.243594 4.149885 -0.007184 -0.016349 0.181089 0.000000 0.000000 0.000000 0.000000 0.000000 0.000000 0.000000 6.209661 1.130216 0.286422 71.090225 2.696974 9.719965 -0.019423 89.490197 -0.029327 -4.774618 2.617190 -0.127012 0.063614 -0.406555 0.000000 0.000000 0.000000 0.000000 0.000000 0.000000 0.000000 
-11.852068 15.961766 -1.652267 -32.839238 83.911627 -1.775871 -8.566411 -1.969776 -1.224354 -11.344392 0.833865 -68.547445 -1.531638 3.670025 49.355613 2.359788 8.999925 -12.546902 -0.364500 0.000000 -17.601300 11.347538 0.792798 -5.255560 5.910894 -10.081169 -40.532361 -1.112236 -5.122881 69.810832 -0.037483 10.728865 18.004996 4.836000 0.000000 -84.829800 -0.870347 -0.121255 9.717481 -0.953323 0.144685 -1.463962 -5.740194 0.165670 -2.091929 8.429181 -5.038835 -5.889406 -2.280693 -0.163903 0.021984 0.000000 0.000000 0.000000 0.971287 7.408678 2.528062 -70.293504 13.015629 10.786568 -0.276797 -83.601623 0.000139 -0.090391 4.165344 -0.001647 -0.022775 0.183747 0.000000 0.000000 0.000000 0.000000 0.000000 0.000000 0.000000 6.239401 1.149240 0.307413 71.406776 2.441658 9.607320 0.002283 88.764684 -0.029406 -4.813329 2.662853 -0.129827 0.061389 -0.403289 0.000000 0.000000 0.000000 0.000000 0.000000 0.000000 0.000000 
-11.714694 15.949726 -1.668706 -32.133314 83.942145 -1.257339 -8.591417 -1.985848 -1.334822 -11.387978 0.763384 -68.006303 -1.484121 3.696682 50.246325 2.475685 9.404796 -13.711521 -0.613000 -0.000000 -18.158800 11.351157 0.854505 -5.177625 5.681980 -9.639333 -40.611776 -1.255761 -5.108010 70.713549 -0.215961 10.005268 19.819604 4.886500 0.000000 -82.538400 -0.903712 -0.125946 9.759919 -0.960796 0.138588 -1.451238 -5.750077 0.159548 -2.088336 8.285538 -4.948254 -5.798309 -2.311589 -0.167190 0.047277 0.000000 0.000000 0.000000 0.915257 7.168188 2.517711 -69.926675 11.876118 10.738093 -0.302076 -83.142440 -0.000754 0.063077 4.172627 0.003991 -0.029237 0.186727 0.000000 0.000000 0.000000 0.000000 0.000000 0.000000 0.000000 6.265125 1.163424 0.328268 71.702595 2.210079 9.531677 0.024365 87.978437 -0.029361 -4.841825 2.716761 -0.132641 0.059283 -0.399579 0.000000 0.000000 0.000000 0.000000 0.000000 0.000000 0.000000 
-11.578990 15.939559 -1.684923 -31.615896 83.959075 -0.900448 -8.618495 -2.006546 -1.433174 -11.384699 0.672629 -67.452341 -1.432892 3.711891 51.044212 2.591556 9.833432 -14.759504 -0.855800 -0.000000 -18.637600 11.347993 0.916020 -5.092732 5.529823 -9.131668 -40.752344 -1.388602 -5.091173 71.624593 -0.404707 9.069743 21.513369 4.771899 -0.000000 -79.690001 -0.907951 -0.131154 9.788023 -0.961491 0.131826 -1.438754 -5.756599 0.152700 -2.075072 8.135488 -4.856971 -5.703617 -2.342633 -0.170527 0.073615 0.000000 0.000000 0.000000 0.855529 6.948153 2.503588 -69.566128 10.699418 10.666910 -0.327659 -82.690512 -0.001676 0.218894 4.177265 0.009728 -0.035753 0.189961 0.000000 0.000000 0.000000 0.000000 0.000000 0.000000 0.000000 6.291318 1.171440 0.349440 71.975304 2.001278 9.493943 0.046807 87.135624 -0.029150 -4.853083 2.777520 -0.135355 0.057216 -0.395418 0.000000 0.000000 0.000000 0.000000 0.000000 0.000000 0.000000 
-11.445000 15.931221 -1.700674 -31.276795 83.963750 -0.695341 -8.647633 -2.030685 -1.519879 -11.342453 0.568414 -66.899925 -1.377977 3.718681 51.763257 2.704048 10.274038 -15.678178 -1.087600 0.000001 -18.996400 11.338653 0.977115 -5.002071 5.451963 -8.567952 -40.960325 -1.513054 -5.075077 72.551645 -0.600627 7.886019 22.982796 4.450200 -0.000000 -76.294500 -0.886876 -0.137077 9.801637 -0.956523 0.124192 -1.427212 -5.760922 0.144870 -2.054543 7.984640 -4.764116 -5.605187 -2.373739 -0.173913 0.101073 0.000000 0.000000 0.000000 0.796414 6.740286 2.486155 -69.211332 9.498245 10.570541 -0.353156 -82.251546 -0.002632 0.377709 4.184178 0.015463 -0.042270 0.193369 0.000000 0.000000 0.000000 0.000000 0.000000 0.000000 0.000000 6.321935 1.175546 0.372234 72.225013 1.806578 9.487849 0.069619 86.243995 -0.028758 -4.843261 2.843105 -0.137668 0.055135 -0.390831 0.000000 0.000000 0.000000 0.000000 0.000000 0.000000 0.000000 
